<?xml version="1.0" encoding="UTF-8"?>
<svg version="1.1" xmlns="http://www.w3.org/2000/svg" width="50" height="50">
<path d="M0 0 C1.9375 1.5625 1.9375 1.5625 3 3 C3.5775 2.71125 4.155 2.4225 4.75 2.125 C5.86375 1.568125 5.86375 1.568125 7 1 C7.598125 0.608125 8.19625 0.21625 8.8125 -0.1875 C12.17492512 -1.43640076 14.55848775 -0.84528371 18 0 C21.35211493 2.18616191 22.72686604 3.18059812 24 7 C24.83652179 14.94695701 22.31526405 20.88290465 17.3203125 27.0859375 C13.96854064 30.61647052 10.67437349 33.40872392 6 35 C0.1346067 34.87780431 -3.71719415 32.24378353 -7.828125 28.203125 C-13.39240012 22.17126374 -16.66564731 16.46238501 -16.3515625 8.08203125 C-15.79850748 4.80671649 -14.44426274 3.18001812 -12 1 C-7.84630893 -1.46976226 -4.62584497 -1.11362934 0 0 Z M2 8 C3 10 3 10 3 10 Z M5 8 C6 10 6 10 6 10 Z M-13 14 C-12 16 -12 16 -12 16 Z " fill="#AAB8FF" transform="translate(21,8)"/>
<path d="M0 0 C1.9375 1.5625 1.9375 1.5625 3 3 C3.5775 2.71125 4.155 2.4225 4.75 2.125 C5.86375 1.568125 5.86375 1.568125 7 1 C7.598125 0.608125 8.19625 0.21625 8.8125 -0.1875 C12.17492512 -1.43640076 14.55848775 -0.84528371 18 0 C21.35211493 2.18616191 22.72686604 3.18059812 24 7 C24.83652179 14.94695701 22.31526405 20.88290465 17.3203125 27.0859375 C13.96854064 30.61647052 10.67437349 33.40872392 6 35 C0.1346067 34.87780431 -3.71719415 32.24378353 -7.828125 28.203125 C-13.39240012 22.17126374 -16.66564731 16.46238501 -16.3515625 8.08203125 C-15.79850748 4.80671649 -14.44426274 3.18001812 -12 1 C-7.84630893 -1.46976226 -4.62584497 -1.11362934 0 0 Z M-13 6 C-14.12686219 11.10243201 -13.60092135 15.64915765 -11 20.1875 C-7.29044161 25.35776269 -2.86597877 29.74613429 3 32.3125 C8.87256027 31.70077497 13.0909801 27.22382343 16.875 22.9375 C20.18830251 18.35734653 21.54621253 14.58071899 21.375 8.94140625 C21.06737764 6.66913092 21.06737764 6.66913092 18.9375 3.9375 C16.09017503 1.69344903 16.09017503 1.69344903 12.4375 1.875 C8.44290538 3.18232188 7.16358787 4.45171589 5 8 C5 8.66 5 9.32 5 10 C4.34 10 3.68 10 3 10 C2.7525 9.236875 2.505 8.47375 2.25 7.6875 C0.85038832 4.67833489 -0.10209155 3.5731503 -3 2 C-7.57216581 1.17935485 -10.05838445 2.47006134 -13 6 Z " fill="#2B63FF" transform="translate(21,8)"/>
<path d="M0 0 C1.875 3.125 1.875 3.125 3 6 C3.66 6 4.32 6 5 6 C5.37125 5.05125 5.7425 4.1025 6.125 3.125 C8 0 8 0 10.8125 -1.5625 C14.85048027 -2.11673259 16.62752789 -1.19602835 20 1 C21.4783226 3.95664519 21.06032783 6.74229737 21 10 C20.505 9.01 20.505 9.01 20 8 C9.11 8 -1.78 8 -13 8 C-12 1 -12 1 -9.3125 -1.0625 C-5.26167631 -2.20895954 -3.67105748 -2.03947638 0 0 Z " fill="#84C2FF" transform="translate(21,12)"/>
<path d="M0 0 C8.58 0 17.16 0 26 0 C19.64864865 7.62162162 19.64864865 7.62162162 14 10 C8.17722368 9.38055571 3.98156429 5.03209176 0 1 C0 0.67 0 0.34 0 0 Z " fill="#D2AFFF" transform="translate(12,30)"/>
<path d="M0 0 C0.99 0 1.98 0 3 0 C3.18433594 0.6290625 3.36867188 1.258125 3.55859375 1.90625 C6.03558208 9.21611778 9.61715926 13.65161988 16 18 C18.9577587 19.64800683 18.9577587 19.64800683 22 19 C26.93175546 16.23129518 30.72893537 12.6037206 34 8 C34.86625 6.8553125 34.86625 6.8553125 35.75 5.6875 C36.36875 4.8521875 36.36875 4.8521875 37 4 C37.66 4.66 38.32 5.32 39 6 C35.08457113 13.24730824 29.81429171 19.77956463 22 23 C15.10037773 22.70001642 10.82911039 19.08365748 6.3125 14.1875 C2.69274185 9.89504343 0 5.78451298 0 0 Z " fill="#B727FF" transform="translate(5,20)"/>
<path d="M0 0 C0.99 0 1.98 0 3 0 C3.27714844 0.69867187 3.55429688 1.39734375 3.83984375 2.1171875 C4.20207031 3.02726562 4.56429688 3.93734375 4.9375 4.875 C5.29714844 5.77992187 5.65679688 6.68484375 6.02734375 7.6171875 C6.94901262 9.96137667 6.94901262 9.96137667 8 12 C6.68 12 5.36 12 4 12 C3.32645501 10.56570999 2.66140299 9.12742943 2 7.6875 C1.62875 6.88699219 1.2575 6.08648437 0.875 5.26171875 C0 3 0 3 0 0 Z " fill="#7544FF" transform="translate(5,20)"/>
<path d="M0 0 C-0.309375 0.53625 -0.61875 1.0725 -0.9375 1.625 C-2.17827439 4.3984957 -2.5909675 7.00042837 -3 10 C-3.99 10 -4.98 10 -6 10 C-6.22692276 6.67179946 -6.32162419 4.58198664 -4.6875 1.625 C-3 0 -3 0 0 0 Z " fill="#3E59FF" transform="translate(11,10)"/>
<path d="M0 0 C0.99 0 1.98 0 3 0 C3.125 7.75 3.125 7.75 2 10 C1.01 9.67 0.02 9.34 -1 9 C-0.67 6.03 -0.34 3.06 0 0 Z " fill="#5450FF" transform="translate(42,15)"/>
<path d="M0 0 C0.99 0.66 1.98 1.32 3 2 C1.68 4.31 0.36 6.62 -1 9 C-1.66 8.01 -2.32 7.02 -3 6 C-2.01 4.02 -1.02 2.04 0 0 Z " fill="#8040FF" transform="translate(41,24)"/>
<path d="M0 0 C2.1875 1.25 2.1875 1.25 4 3 C4 3.99 4 4.98 4 6 C3.01 6 2.02 6 1 6 C-1.1875 3.5 -1.1875 3.5 -3 1 C-2.01 0.67 -1.02 0.34 0 0 Z " fill="#2F5DFF" transform="translate(40,9)"/>
<path d="M0 0 C3.65316671 1.24976756 4.78065836 1.67098753 7 5 C4.625 4.75 4.625 4.75 2 4 C0.6875 1.9375 0.6875 1.9375 0 0 Z " fill="#9B35FF" transform="translate(10,31)"/>
<path d="M0 0 C0.66 0 1.32 0 2 0 C1.6875 1.875 1.6875 1.875 1 4 C0.01 4.66 -0.98 5.32 -2 6 C-2 2 -2 2 0 0 Z " fill="#9A35FF" transform="translate(37,31)"/>
</svg>
